# xmcd
#
# Track frame offsets: 
#        150
#        12708
#        26225
#        42089
#        60150
#        75255
#        92924
#        113241
#        136919
#        163240
#        183767
#        201515
#        220728
#        244330
#        261633
#
# Disc length: 3728 seconds
#
# Revision: 0
# Processed by: cddbd v1.5.2PL0 Copyright (c) Steve Scherf et al.
# Submitted via: ExactAudioCopyFreeDBPlugin 1.0
#
DISCID=d40e8e0f
DTITLE=Popa Chubby - It's A Mighty Hard Road
DYEAR=2020
DGENRE=Blues
TTITLE0=The Flavor Is In The Fat
TTITLE1=It's A Mighty Hard Road
TTITLE2=Buyer Beware
TTITLE3=It Ain't Nothin'
TTITLE4=Let Love Free The Day
TTITLE5=If You're Looking For Trouble
TTITLE6=The Best Is Yet To Come
TTITLE7=I'm The Beast From The East
TTITLE8=Gordito
TTITLE9=Enough Is Enough
TTITLE10=More Time Making Love
TTITLE11=Why You Wanna Bite My Bones
TTITLE12=Lost Again
TTITLE13=I' D Rather Be Blind
TTITLE14=Kiss
EXTD=
EXTT0=
EXTT1=
EXTT2=
EXTT3=
EXTT4=
EXTT5=
EXTT6=
EXTT7=
EXTT8=
EXTT9=
EXTT10=
EXTT11=
EXTT12=
EXTT13=
EXTT14=
PLAYORDER=
